<svg id="Layer_1" data-name="Layer 1" xmlns="http://www.w3.org/2000/svg" viewBox="0 0 1725.42 1576.41"><defs><style>.cls-1{fill:#3c8f7c;}.cls-2{fill:#f7a491;}.cls-3{fill:#355389;}.cls-4{fill:#466eb6;}.cls-5{fill:#13375b;}.cls-6{fill:#96d9c9;}.cls-7{fill:#f47458;}.cls-8{fill:#fff;}.cls-9{fill:#9bc1f9;}.cls-10{fill:#f48c7f;}.cls-11{fill:#b75742;}.cls-12{fill:#f7cc7f;}.cls-13{fill:#60bda6;}.cls-14{fill:#fbe4bb;}.cls-15{fill:#c1e9df;}.cls-16{fill:#184655;}</style></defs><title>posIllusration</title><rect class="cls-1" x="265.95" y="1726.11" width="1725.42" height="81.61" transform="translate(1991.37 3302.53) rotate(180)"/><path class="cls-2" d="M917.46,1656.61c-1.3-9.35,1.62-25.44,8.92-50.62-14.46,0-26.61-6.39-41.39-6.16-4,23.67-10.29,62.55-10.29,62.55l-.67,30.73,102.91.78s-.86.44-31.2-18.79C943.5,1673.68,918.72,1665.66,917.46,1656.61Z" transform="translate(-265.95 -231.31)"/><path class="cls-1" d="M873.54,1701H979.77c3.93-.35,4.88-3.57,3.52-5.55-2.8-4.08-23.52-13.88-37.45-20.38-24.44,2.58-67.38-7.51-71.24-13.18C867.9,1680.7,871.35,1700.53,873.54,1701Z" transform="translate(-265.95 -231.31)"/><path class="cls-2" d="M789.27,1656.61c-1.31-9.35-3.52-21.07-.28-52.26-14.46,0-28.22-2.69-43-2.47,0,24.36.51,60.5.51,60.5l-.67,30.73,102.91.78s-.86.44-31.2-18.79C815.3,1673.68,790.52,1665.66,789.27,1656.61Z" transform="translate(-265.95 -231.31)"/><path class="cls-1" d="M745.34,1701H851.57c3.93-.35,4.89-3.57,3.53-5.55-2.81-4.08-23.53-13.88-37.46-20.38-24.43,2.58-67.38-7.51-71.23-13.18C739.7,1680.7,743.15,1700.53,745.34,1701Z" transform="translate(-265.95 -231.31)"/><path class="cls-2" d="M864.05,765.31l38.71-41S944.19,747.2,992.49,769c13.28-23.18,35-99.43,36.12-103.06s-25.38-49.46-19.45-50.61,13.66,24.47,19.94,21.87,22.42-62,26.19-58.76c7.07,6.06-8.49,36.95-4.76,39.2s13.18-34.24,20.38-32.68-12.16,33.21-10,36.26,22.34-26.66,26.52-19.78c2.27,3.73-18.65,25.86-14.35,28.34s23.16-11.46,25.41-7-17.59,9.22-23.1,20.65-15.53,15.87-18.86,37.47-12.41,137.06-35.88,146.33C1000.13,835.41,864.05,765.31,864.05,765.31Z" transform="translate(-265.95 -231.31)"/><path class="cls-3" d="M889.06,986.24l-31.39,17.56-63.81,97.85L908,1371s-12.85,40.51-17,60.75c-4.39,21.18-15.13,202.93-15.13,202.93l48.68.82s46.24-193.49,54.07-256.29c9.51-76.27-48.39-257.89-48.39-257.89-10.8-37.06-34.08-113.3-34.08-113.3S890.4,989.49,889.06,986.24Z" transform="translate(-265.95 -231.31)"/><path class="cls-4" d="M779.8,949.49s3.24,23-9.74,49.27c-7.91,16-21.58,28.56-31.37,48.16-18.53,37.11-28.58,89.82-21.64,123.69,0,0,38.31,146.7,36.79,200.31-.56,19.78-7.33,55.4-11.66,79.48-3.82,21.29-5.11,181.86-5.11,181.86l54.36-1.64,41.63-259,17.6-230.26,38.4-155.09Z" transform="translate(-265.95 -231.31)"/><path class="cls-5" d="M900.66,607.27c-5-23.78-10.21-47.64-33.76-64.77-19.07-13.86-39.55-17.82-61.27-9.92-61.54,22.38-28.44,71.36-104.8,123.57-23.73,16.22-32.74,21.88-49.77,43.49-23.83,30.26-36.86,70.86-24.88,104.28C651,873,727.74,893,767.9,878.35,842.66,851.08,904.94,756,909.08,730,913.51,702.26,903.89,622.58,900.66,607.27Z" transform="translate(-265.95 -231.31)"/><path class="cls-6" d="M906.36,791c17.32,8,48.7,20.09,48.7,20.09l17.84-56.62C872,697,879.93,706.24,804.21,707.37c-60.49.87-85.84-10.72-137.93,130.32,0,0,39.65,17.87,53.85,23.6,6.11-17.43,17.14-52.2,23.58-32.38a577.69,577.69,0,0,1,21.61,91.31c3,18.45,9.63,42.07,6.17,60.87,0,0,41.19,8.5,72.66,9.89a1.22,1.22,0,0,0,.27,0c15.21-.39,30.78-1.73,44.64-4.73,0,0,6.17-130.84,9.47-136.29,3.65-6.05,19.07-25.58,6-54.79C902.16,790,902.78,789.38,906.36,791Z" transform="translate(-265.95 -231.31)"/><path class="cls-2" d="M813.69,649.13s-4.82,39-7.66,52.57c-3,14.17-7.44,58.81,21.87,66.06s20.25-48.57,20.73-63,8.79-64.66,8.79-64.66Z" transform="translate(-265.95 -231.31)"/><path class="cls-7" d="M812.1,661.58c.3.18.57.37.88.55,16.2,9.31,30.29,7.84,40.87.59,1.89-12.47,3.57-22.61,3.57-22.61l-43.73,9S813.05,654.33,812.1,661.58Z" transform="translate(-265.95 -231.31)"/><path class="cls-2" d="M822.5,547.52a50.13,50.13,0,0,0-27.07,22c-9.9,17.1-14.85,66.23,21.61,87.19s62.32-12.63,61.22-44S868.43,539.64,822.5,547.52Z" transform="translate(-265.95 -231.31)"/><path class="cls-2" d="M886.31,599.13c.41,8.17-3.08,15-7.78,15.22s-8.84-6.19-9.25-14.35,3.08-15,7.78-15.22S885.91,591,886.31,599.13Z" transform="translate(-265.95 -231.31)"/><path class="cls-5" d="M827.66,546.23S808,597.61,788.78,603.08s-17.69,30.75-17.69,30.75-2.47-58.42,15.1-72.74S827.66,546.23,827.66,546.23Z" transform="translate(-265.95 -231.31)"/><path class="cls-2" d="M797,613.13c3,8,1,16.19-4.34,18.22s-12.12-2.84-15.09-10.87-1-16.19,4.35-18.21S794.06,605.1,797,613.13Z" transform="translate(-265.95 -231.31)"/><path class="cls-2" d="M830.62,1018.14c.72.1,3.93-.33,6.56-.26a48.85,48.85,0,0,1,6.82.62,19,19,0,0,1,4.15-2.51c1.13-.52,3-.72,4.25-1.3s2.4-1.73,3.63-2.28c3.22-1.4,6.17-1.72,7.15,0,.81,1.4-17.07,12.37-17.07,12.37-16.56.09-33.89,8.56-72.25-16.54-21.91-9.6-128.29-62.3-130.43-73.79-1.2-6.45,15.12-56.35,28.46-94.24,10.29,4.62,32.16,14.39,44.4,19.53-11.23,23.86-24.47,55.5-23.08,59.37.36,1,1.69,2.84,73.61,50.07,1.82,1.17,3.67,2.41,5.55,3.64q7.59,5,16.23,10.62l20.51-2.15s32.48,2.24,33.46,6c.42,1.69-2.28,2.53-5.58,3h-.1l-1.46.2h-.07c-3.57.42-7.33.48-8.24.81a21.11,21.11,0,0,0-4.9,2.41c20.25,8.3,18.69,5.34,25.41,4.92,1.69-.13,3.47.35,5.06.22,2.73-.22,4.9-1.85,7-2a9.12,9.12,0,0,1,6.14,1.85c.71.72-.62,1.76-3.22,2.93-15.64,6.81-28.59,4.2-32.74,5.21-2.79.68,2.3,1.73,10.25.88,2-.2,4.58.52,7.21-.1,1.75-.39,3.34-1.53,5.06-2s3.21-.36,4.55-.62c1.75-.32,4.18-1.66,5.58-1.82,5.19-.59,7.72.32,8.31.81,1.2,1.08-22.4,10.16-22.4,10.16s-16.26,2.34-19.89,2.34C828.55,1016.51,826.37,1017.49,830.62,1018.14Z" transform="translate(-265.95 -231.31)"/><rect class="cls-8" x="763.53" y="787.35" width="55.02" height="26.77" transform="translate(-325.26 -168.02) rotate(-4.42)"/><polygon class="cls-3" points="561.77 1494.8 1105.95 1494.8 1246.51 888.4 561.77 888.4 561.77 1494.8"/><rect class="cls-4" x="433.42" y="1119.72" width="395.71" height="606.4" transform="translate(996.59 2614.52) rotate(180)"/><rect class="cls-9" x="367.63" y="1097.78" width="1222.51" height="21.94" transform="translate(1691.81 1986.18) rotate(180)"/><path class="cls-5" d="M1420.76,655.12c-1.25-30,3.17-59.54,16.57-87.44,11.54-24,40.07-37.61,66.09-37.65,82.64-.11,93.15,109.07,145.75,151.19,16.07,12.87,34,23.35,49.24,37.22,56.16,51.25,30.87,146.1-20.7,191-35.79,31.17-92,48.88-136.13,24.51-23-12.72-40.5-33.86-52.95-57-17.67-32.89-29.06-70.83-41.63-105.87C1433.62,733.78,1422.41,694.94,1420.76,655.12Z" transform="translate(-265.95 -231.31)"/><path class="cls-10" d="M1329,1190.21s4.94-6.17,6.42-8.34c1.74-2.55,6.36-10.6,6.36-10.6s14.78-28.77,12.56-29.69-7.5,2.6-9,4.05-3.47,3-5,4.47-3.88,1.52-5.83-.26,2.92-8.92,5.09-11c6.76-6.64,28.42-20.74,30.65-22.34,2.63-1.88,19.08-56.51,26.2-74.78h0c10.77-30.25,20.32-61.89,21.45-65.1l6.78-137.35,51.31-17.1s-5.39,152.54-6.53,160.14c-.54,3.61-30.93,71.79-31,71.78-17.08,32.63-32.21,61.34-35,66.94,0,0-3.72,19-5.38,31.16s-8.09,22.78-9.09,26.14a79.21,79.21,0,0,1-11.4,24.41c-7.3,10.48-5.19-2.89-5.19-2.89s10-21.92,8.16-22.43c-1.43-.4-6.2,11.9-14.16,23.59-2,3-4.07,6-6,8.67-5,7.09-10.73,6-6.73-2.27a86.23,86.23,0,0,1,6.11-10.87c2.42-3.41,3.54-7.35,5.13-10.54,3.16-6.32,5.54-10.9,5.21-10.89s-.69-1.7-3,1.42c-2.73,3.75-6.76,13-11.2,18.24-2.52,3-7.41,9.44-7.41,9.44s-9.07,9.63-9.75,9.25c-3.66-2.08.86-10.86,4.81-14.41,1.34-3.57,6.68-10.25,6.68-10.25s7.75-16,5.5-17.15c-1.84-.95-27.78,33.62-31.31,31.28C1321.65,1201,1329,1190.21,1329,1190.21Z" transform="translate(-265.95 -231.31)"/><path class="cls-2" d="M1679.07,1619.67s5.82,40.3,15.83,53.3c3.36,4.37,9.5,9.89,13.54,17.78,6.27,12.28,2.8,30.56-1.83,40.63-2.37,5.16.17,5.15-5.24,6.82-16,4.93-33.06-3.38-39.88-18.69a94.66,94.66,0,0,1-7.83-34.34c-1.71-36.59-13.11-55.2-13.11-55.2Z" transform="translate(-265.95 -231.31)"/><path class="cls-2" d="M1505.43,1642.22s-3.6,45.45-.68,60.22c1.56,7.9,10.26,24.18,6.27,31.62s-8.74,6.23-8.74,6.23l-98.67,1.83c-5.63.09-6.48-.62-1.94-3.95,7.44-5.46,13.43-9.06,37.19-20.53,1.54-.75,7.19-4.33,9.22-5.57,5.16-3.14,10.33-8.09,14.79-13,7.43-8.25,8.08-48.27,8.08-48.27Z" transform="translate(-265.95 -231.31)"/><path class="cls-11" d="M1423,1034.05s-13,73.78-4.47,122.15,49.6,496.74,49.6,496.74l45.61,2.57s9.56-187.3,7.85-213.34-15.24-69.63-15.24-69.63l4.54-151.22-57.57-198.66Z" transform="translate(-265.95 -231.31)"/><path class="cls-7" d="M1557.07,1018.53s35.91,54,44.46,98.61-6.27,181.87,10.18,240.38c8.9,31.67,42.65,80.58,47.78,121.52s25.26,148.14,25.26,148.14l-45.59,9-106-267.76-83.12-242-21.29-124.64Z" transform="translate(-265.95 -231.31)"/><path class="cls-12" d="M1528,711.56s47.55-3,66.37,17.45-41.74,182.35-45.16,208.39,17.44,95.3,17.44,95.3-111.71,22.44-143.64,1.35c0,0-5.86-189.1-2.44-207.71s34.37-92.45,41.21-99.89S1528,711.56,1528,711.56Z" transform="translate(-265.95 -231.31)"/><path class="cls-2" d="M1512.16,648.15s.24,1.39.69,3.77c2.12,11.41,10.28,49.26,15.8,59.67,6.66,12.57-22.82,52.68-51.2,47.79-8.45-1.46,7.14-36.85,6.39-40.6-1.44-7.18-3.38-17-5.37-27l-3.33-16.8-5.51-27.88Z" transform="translate(-265.95 -231.31)"/><path class="cls-7" d="M1512.85,651.92c-.45-2.38-.69-3.77-.69-3.77l-42.53-1.06,5.51,27.88c1.06,5.36,2.2,11.07,3.31,16.71,6.57-1,13.43-4.15,20.31-10.16a53.59,53.59,0,0,0,15.38-22.83C1513.61,656,1513.18,653.69,1512.85,651.92Z" transform="translate(-265.95 -231.31)"/><path class="cls-2" d="M1483.54,551.67s20-2.31,32.61,13.91,26.1,66.37-5.11,93.64-62-3.6-66.63-36.32S1438.07,550.49,1483.54,551.67Z" transform="translate(-265.95 -231.31)"/><path class="cls-2" d="M1435.18,622.41c3.73,7.23,10,11.23,14,8.94s4.2-10,.47-17.23-10-11.23-14-8.94S1431.46,615.19,1435.18,622.41Z" transform="translate(-265.95 -231.31)"/><path class="cls-5" d="M1481.29,546.31s26.78,47.7,45.94,49.9,21.67,27.55,21.67,27.55-6.85-58.4-25.81-69.66S1481.29,546.31,1481.29,546.31Z" transform="translate(-265.95 -231.31)"/><path class="cls-11" d="M1658.38,1711.45c24.85,4.53,41.38-10,50-20.84,6.31,12.3,9.39,30.66,4.75,40.77-4.09,8.9-16,8.64-25.47,9-10,.37-17.65-5.15-22.59-13.8A82.14,82.14,0,0,1,1658.38,1711.45Z" transform="translate(-265.95 -231.31)"/><path class="cls-11" d="M1448.09,1712.06c27.36,7,47.58,2.25,58.89-2.3,2.92,8.24,6.78,18.6,4.73,24.57-2.51,7.3-6.08,9-9.24,9-25,.65-91.53,1.54-110.58,1.79a3.1,3.1,0,0,1-2.41-5.1C1394.2,1734.42,1446.06,1713.31,1448.09,1712.06Z" transform="translate(-265.95 -231.31)"/><path class="cls-2" d="M1522.21,608.2c-1.56,8.46,1.57,16.23,7,17.34s11.08-4.85,12.64-13.32-1.58-16.24-7-17.35S1523.76,599.73,1522.21,608.2Z" transform="translate(-265.95 -231.31)"/><path class="cls-1" d="M1428.55,876.39l1.09-29.15c.81-21.69,13-40.43,27.22-41.76s30.18,16.44,35.6,39.62l7.29,31.14c.71,3.06,4.68,3.06,3.92,0L1495.92,845c-6.4-25.82-24.13-45.55-39.52-44s-28.94,22.37-30.22,46.36l-1.55,29C1424.47,879.25,1428.44,879.25,1428.55,876.39Z" transform="translate(-265.95 -231.31)"/><polygon class="cls-13" points="1140.23 620.46 1145.75 620.33 1131.94 811.53 1098.24 811.77 1140.23 620.46"/><polygon class="cls-6" points="1131.94 811.53 1332.03 811.53 1294.27 620.91 1145.75 620.33 1131.94 811.53"/><polygon class="cls-13" points="1236.17 792.94 1332.03 811.53 1131.94 811.53 1236.17 792.94"/><path class="cls-1" d="M1443.93,872.25l1.09-29.14c.81-21.7,13-40.43,27.23-41.76s30.17,16.44,35.6,39.61l7.28,31.14c.72,3.06,4.69,3.07,3.92,0l-7.75-31.25c-6.4-25.82-24.13-45.55-39.51-44s-29,22.36-30.23,46.35l-1.55,29C1439.86,875.11,1443.82,875.12,1443.93,872.25Z" transform="translate(-265.95 -231.31)"/><path class="cls-2" d="M1464.2,1050.15c-.8.11-4.36-.36-7.28-.29a56.56,56.56,0,0,0-7.57.69,21.36,21.36,0,0,0-4.62-2.79c-1.26-.57-3.31-.79-4.72-1.44s-2.67-1.92-4-2.53c-3.57-1.55-6.86-1.92-7.94,0-.9,1.56,19,13.74,19,13.74,18.39.11,37.63,9.51,80.24-18.36,24.33-10.67,142.49-69.2,144.87-82,1.33-7.16-16.8-62.58-31.61-104.67-11.43,5.14-35.72,16-49.31,21.69,12.47,26.51,27.18,61.65,25.63,65.95-.4,1.12-1.88,3.14-81.76,55.6-2,1.3-4.07,2.68-6.16,4q-8.43,5.54-18,11.79l-22.78-2.39s-36.09,2.5-37.17,6.62c-.47,1.88,2.53,2.82,6.2,3.36h.11l1.62.21h.07c4,.48,8.15.55,9.16.91a23.82,23.82,0,0,1,5.44,2.67c-22.49,9.22-20.76,5.93-28.22,5.46-1.87-.14-3.86.4-5.62.26-3-.26-5.45-2.06-7.79-2.21a10.14,10.14,0,0,0-6.81,2.06c-.8.8.68,2,3.57,3.26,17.37,7.55,31.75,4.66,36.37,5.78,3.09.76-2.56,1.92-11.39,1-2.2-.22-5.09.58-8-.11-1.94-.44-3.71-1.7-5.62-2.17s-3.57-.4-5-.69c-1.94-.36-4.64-1.84-6.2-2-5.76-.65-8.57.36-9.22.9-1.34,1.19,24.87,11.28,24.87,11.28s18.06,2.6,22.09,2.6C1466.5,1048.34,1468.92,1049.43,1464.2,1050.15Z" transform="translate(-265.95 -231.31)"/><path class="cls-12" d="M1592.3,898.43s-53.71-82.53-58.54-112.85,21.74-67.84,48.87-64.94,64.45,141.09,64.45,141.09Z" transform="translate(-265.95 -231.31)"/><path class="cls-14" d="M1737.82,257.83c-86.87-1-157.79,41.42-158.42,94.78-.31,26.68,17,51,45.27,68.85l-31.56,53.33,70.29-35.36a239.17,239.17,0,0,0,72.15,11.63c86.87,1,157.79-41.41,158.42-94.77S1824.68,258.85,1737.82,257.83Z" transform="translate(-265.95 -231.31)"/><path class="cls-15" d="M1113.17,231.48c-96.9,3.24-173.83,54.11-171.84,113.63,1,29.76,21.54,56.05,53.94,74.49l-40.82,63.19,84.9-45.11a267,267,0,0,0,81,9.33c96.89-3.24,173.83-54.11,171.84-113.63S1210.06,228.24,1113.17,231.48Z" transform="translate(-265.95 -231.31)"/><polygon class="cls-16" points="958.25 740.35 953.11 866.46 893.92 866.46 940.83 747.21 958.25 740.35"/><rect class="cls-16" x="787.83" y="617.25" width="276.52" height="214.48" rx="5.15"/><rect class="cls-16" x="1244.2" y="794.74" width="96.08" height="45.44" rx="2.57" transform="translate(2318.54 1403.61) rotate(180)"/><rect class="cls-16" x="1286.45" y="826.37" width="7.72" height="28.31" transform="translate(2314.68 1449.73) rotate(180)"/></svg>